<?xml version="1.0" encoding="utf-8"?>
<!-- Generator: Adobe Illustrator 16.0.0, SVG Export Plug-In . SVG Version: 6.00 Build 0)  -->
<!DOCTYPE svg PUBLIC "-//W3C//DTD SVG 1.1//EN" "http://www.w3.org/Graphics/SVG/1.1/DTD/svg11.dtd">
<svg version="1.1" id="Layer_1" xmlns="http://www.w3.org/2000/svg" xmlns:xlink="http://www.w3.org/1999/xlink" x="0px" y="0px"
	 width="432.077px" height="371px" viewBox="0 0 432.077 371" enable-background="new 0 0 432.077 371" xml:space="preserve">
<g>
	<g>
		<path fill="#333333" d="M44.409,215.812v-38.749c0-5.296-4.004-8.654-10.333-8.654c-3.746,0-7.363,0.517-10.333,1.292v46.111
			H6.563v-94.678h17.179v34.357c3.1-0.904,6.975-1.679,10.333-1.679c16.404,0,27.512,9.042,27.512,23.25v38.749H44.409z"/>
		<path fill="#333333" d="M131.856,191.658H91.428c1.55,7.879,8.396,11.237,17.566,11.237c6.458,0,12.529-1.421,18.083-3.229v14.596
			c-5.425,1.938-12.141,3.229-18.083,3.229c-22.216,0-35.391-12.013-35.391-31.775c0-19.115,11.496-31.903,29.708-31.903
			c18.6,0,28.933,12.788,28.933,31.903C132.244,187.783,132.115,189.721,131.856,191.658z M103.311,167.375
			c-5.942,0-10.592,4.004-11.625,10.591h23.508C114.032,170.733,109.382,167.375,103.311,167.375z"/>
		<path fill="#333333" d="M162.341,217.491c-10.85,0-17.179-5.296-17.179-17.18v-79.178h17.179v77.37
			c0,3.229,1.292,4.392,4.263,4.392c2.196,0,4.392-0.646,6.071-1.291v14.207C169.962,216.716,165.829,217.491,162.341,217.491z"/>
		<path fill="#333333" d="M198.51,217.491c-10.85,0-17.179-5.296-17.179-17.18v-79.178h17.179v77.37
			c0,3.229,1.291,4.392,4.262,4.392c2.197,0,4.392-0.646,6.072-1.291v14.207C206.13,216.716,201.997,217.491,198.51,217.491z"/>
		<path fill="#333333" d="M244.108,217.491c-19.506,0-31.001-13.046-31.001-31.775c0-18.857,11.495-31.903,31.001-31.903
			c19.633,0,30.998,13.046,30.998,31.903C275.106,204.445,263.741,217.491,244.108,217.491z M244.108,168.408
			c-8.139,0-12.918,5.941-12.918,17.308c0,11.238,4.779,17.18,12.918,17.18c8.266,0,12.916-5.941,12.916-17.18
			C257.024,174.35,252.374,168.408,244.108,168.408z"/>
	</g>
	<g>
		<path fill="#333333" d="M124.719,293.614h-16.293l-16.03-39.944l-16.162,39.944H59.942L35.24,232.253h19.052l13.796,39.023
			l15.636-39.023h17.212l15.636,39.023l13.796-39.023h19.052L124.719,293.614z"/>
		<path fill="#333333" d="M185.293,295.321c-19.841,0-31.535-13.27-31.535-32.322c0-19.184,11.694-32.454,31.535-32.454
			c19.972,0,31.535,13.271,31.535,32.454C216.828,282.052,205.265,295.321,185.293,295.321z M185.293,245.393
			c-8.278,0-13.14,6.044-13.14,17.606c0,11.432,4.862,17.476,13.14,17.476c8.409,0,13.139-6.044,13.139-17.476
			C198.433,251.437,193.702,245.393,185.293,245.393z"/>
		<path fill="#333333" d="M258.088,245.393c-3.811,0-7.49,0.525-10.512,1.313v46.908h-17.475v-59.127
			c8.539-2.234,19.709-3.942,27.986-3.942c5.256,0,12.219,1.313,16.688,2.759v14.979
			C270.307,246.706,263.344,245.393,258.088,245.393z"/>
		<path fill="#333333" d="M303.155,295.321c-11.037,0-17.475-5.387-17.475-17.475v-80.545h17.475v78.705
			c0,3.285,1.314,4.468,4.336,4.468c2.234,0,4.469-0.657,6.176-1.313v14.453C310.909,294.534,306.704,295.321,303.155,295.321z"/>
		<path fill="#333333" d="M377.657,295.321c-5.387,0-9.592-1.182-12.613-3.81c-4.73,2.364-9.723,3.81-15.504,3.81
			c-19.84,0-31.535-13.27-31.535-32.322c0-19.184,11.695-32.454,31.535-32.454c3.68,0,7.883,0.657,10.512,1.183v-34.426h17.605
			v78.705c0,3.285,1.314,4.468,4.336,4.468c2.234,0,4.336-0.657,6.176-1.313v14.453
			C385.411,294.534,381.206,295.321,377.657,295.321z M360.051,246.706c-2.891-0.788-6.701-1.313-10.512-1.313
			c-8.277,0-13.139,6.044-13.139,17.606c0,11.432,4.861,17.476,13.139,17.476c4.205,0,7.096-0.657,10.512-2.103V246.706z"/>
	</g>
	<g>
		<path fill="#4D4D4D" d="M110.656,358.874c-1.281,0.845-2.94,1.311-4.92,1.311c-4.92,0-7.191-1.979-7.191-4.833
			c0-2.475,2.038-4.018,4.076-5.298c-1.048-1.428-1.543-2.68-1.543-3.844c0-2.475,1.747-4.25,4.658-4.25
			c2.94,0,4.658,1.601,4.658,4.25c0,1.922-1.485,3.174-3.174,4.25l3.028,3.494c0.087-0.407,0.146-0.844,0.146-1.339v-0.379h3.493
			v0.379c0,1.427-0.32,2.736-0.96,3.843c0.669,0.35,1.339,0.408,2.125,0.175v3.173C113.655,360.155,112.17,359.894,110.656,358.874z
			 M104.455,352.266c-1.048,0.757-1.834,1.602-1.834,2.679c0,1.252,1.077,2.242,3.115,2.242c0.96,0,1.776-0.205,2.475-0.554
			L104.455,352.266z M105.736,344.87c-0.786,0-1.223,0.554-1.223,1.34c0,0.641,0.32,1.311,0.903,2.125
			c0.902-0.67,1.543-1.31,1.543-2.125C106.959,345.366,106.464,344.87,105.736,344.87z"/>
		<path fill="#4D4D4D" d="M131.181,349.528v10.277h-3.872v-10.277h-2.912v-3.318h2.912v-2.911c0-3.202,2.504-5.241,6.201-5.241
			c0.786,0,1.66,0.176,2.329,0.408v3.29c-0.669-0.263-1.427-0.379-2.329-0.379c-1.427,0-2.329,0.757-2.329,1.922v2.911h4.658v3.318
			H131.181z"/>
		<path fill="#4D4D4D" d="M144.574,349.122c-0.844,0-1.66,0.115-2.329,0.291v10.393h-3.872v-13.101
			c1.892-0.495,4.367-0.874,6.201-0.874c1.165,0,2.708,0.291,3.697,0.611v3.319C147.281,349.413,145.738,349.122,144.574,349.122z"
			/>
		<path fill="#4D4D4D" d="M156.685,360.185c-4.396,0-6.987-2.94-6.987-7.162c0-4.25,2.591-7.191,6.987-7.191
			c4.425,0,6.987,2.941,6.987,7.191C163.672,357.244,161.11,360.185,156.685,360.185z M156.685,349.122
			c-1.834,0-2.912,1.338-2.912,3.9c0,2.533,1.077,3.872,2.912,3.872c1.863,0,2.911-1.339,2.911-3.872
			C159.596,350.46,158.548,349.122,156.685,349.122z"/>
		<path fill="#4D4D4D" d="M175.143,359.806v-8.733c0-1.194-0.902-1.95-2.329-1.95c-0.844,0-1.66,0.115-2.329,0.291v10.393h-3.872
			v-13.101c1.892-0.495,4.367-0.874,6.201-0.874c3.697,0,6.201,2.039,6.201,5.241v8.733H175.143z"/>
		<path fill="#4D4D4D" d="M190.079,360.185c-3.697,0-6.201-2.038-6.201-5.24v-5.416h-2.912v-3.318h2.912v-3.581l3.872-0.582v4.163
			h4.658v3.318h-4.658v5.416c0,1.193,0.902,1.95,2.329,1.95c0.902,0,1.66-0.116,2.329-0.378v3.289
			C191.738,360.039,190.865,360.185,190.079,360.185z"/>
		<path fill="#4D4D4D" d="M216.602,354.362h-9.114c0.35,1.775,1.893,2.532,3.959,2.532c1.457,0,2.824-0.319,4.076-0.728v3.29
			c-1.223,0.437-2.736,0.728-4.076,0.728c-5.006,0-7.976-2.707-7.976-7.162c0-4.309,2.591-7.191,6.697-7.191
			c4.191,0,6.522,2.883,6.522,7.191C216.689,353.488,216.66,353.925,216.602,354.362z M210.167,348.889
			c-1.34,0-2.389,0.902-2.621,2.388h5.299C212.583,349.646,211.535,348.889,210.167,348.889z"/>
		<path fill="#4D4D4D" d="M228.131,359.806v-8.733c0-1.194-0.902-1.95-2.328-1.95c-0.846,0-1.66,0.115-2.33,0.291v10.393H219.6
			v-13.101c1.893-0.495,4.368-0.874,6.204-0.874c3.697,0,6.201,2.039,6.201,5.241v8.733H228.131z"/>
		<path fill="#4D4D4D" d="M247.928,360.185c-1.193,0-2.125-0.262-2.795-0.844c-1.049,0.523-2.154,0.844-3.436,0.844
			c-4.396,0-6.986-2.94-6.986-7.162c0-4.25,2.59-7.191,6.986-7.191c0.816,0,1.748,0.146,2.33,0.263v-7.628h3.9v17.439
			c0,0.728,0.291,0.989,0.961,0.989c0.494,0,0.961-0.146,1.369-0.291v3.202C249.647,360.01,248.715,360.185,247.928,360.185z
			 M244.028,349.413c-0.641-0.176-1.486-0.291-2.33-0.291c-1.834,0-2.91,1.338-2.91,3.9c0,2.533,1.076,3.872,2.91,3.872
			c0.932,0,1.572-0.146,2.33-0.466V349.413z"/>
		<path fill="#4D4D4D" d="M273.374,360.185c-1.193,0-2.125-0.262-2.795-0.844c-1.049,0.523-2.154,0.844-3.436,0.844
			c-4.396,0-6.986-2.94-6.986-7.162c0-4.25,2.59-7.191,6.986-7.191c0.816,0,1.748,0.146,2.33,0.263v-7.628h3.9v17.439
			c0,0.728,0.291,0.989,0.961,0.989c0.494,0,0.961-0.146,1.369-0.291v3.202C275.092,360.01,274.161,360.185,273.374,360.185z
			 M269.473,349.413c-0.641-0.176-1.486-0.291-2.33-0.291c-1.834,0-2.91,1.338-2.91,3.9c0,2.533,1.076,3.872,2.91,3.872
			c0.932,0,1.572-0.146,2.33-0.466V349.413z"/>
		<path fill="#4D4D4D" d="M289.793,354.362h-9.113c0.35,1.775,1.893,2.532,3.959,2.532c1.457,0,2.824-0.319,4.076-0.728v3.29
			c-1.223,0.437-2.736,0.728-4.076,0.728c-5.006,0-7.977-2.707-7.977-7.162c0-4.309,2.592-7.191,6.697-7.191
			c4.191,0,6.521,2.883,6.521,7.191C289.881,353.488,289.852,353.925,289.793,354.362z M283.36,348.889
			c-1.34,0-2.389,0.902-2.621,2.388h5.299C285.776,349.646,284.727,348.889,283.36,348.889z"/>
		<path fill="#4D4D4D" d="M299.926,359.806h-3.611l-5.473-13.596h4.221l3.057,8.646l3.057-8.646h4.223L299.926,359.806z"/>
		<path fill="#4D4D4D" d="M319.489,354.362h-9.111c0.35,1.775,1.893,2.532,3.959,2.532c1.455,0,2.824-0.319,4.076-0.728v3.29
			c-1.223,0.437-2.736,0.728-4.076,0.728c-5.008,0-7.977-2.707-7.977-7.162c0-4.309,2.59-7.191,6.695-7.191
			c4.193,0,6.521,2.883,6.521,7.191C319.577,353.488,319.547,353.925,319.489,354.362z M313.055,348.889
			c-1.34,0-2.387,0.902-2.619,2.388h5.297C315.471,349.646,314.424,348.889,313.055,348.889z"/>
		<path fill="#4D4D4D" d="M326.362,360.185c-2.447,0-3.873-1.193-3.873-3.872v-17.847h3.873v17.439c0,0.728,0.291,0.989,0.959,0.989
			c0.496,0,0.99-0.146,1.369-0.291v3.202C328.079,360.01,327.147,360.185,326.362,360.185z"/>
		<path fill="#4D4D4D" d="M336.637,360.185c-4.396,0-6.986-2.94-6.986-7.162c0-4.25,2.59-7.191,6.986-7.191
			c4.426,0,6.988,2.941,6.988,7.191C343.625,357.244,341.063,360.185,336.637,360.185z M336.637,349.122
			c-1.834,0-2.91,1.338-2.91,3.9c0,2.533,1.076,3.872,2.91,3.872c1.863,0,2.912-1.339,2.912-3.872
			C339.549,350.46,338.5,349.122,336.637,349.122z"/>
		<path fill="#4D4D4D" d="M352.768,360.185c-0.758,0-1.631-0.175-2.33-0.379v7.773h-3.873v-20.874
			c1.893-0.495,4.367-0.874,6.203-0.874c4.395,0,6.986,2.941,6.986,7.191C359.754,357.244,357.163,360.185,352.768,360.185z
			 M352.768,349.122c-0.846,0-1.66,0.115-2.33,0.291v7.22c0.67,0.146,1.484,0.262,2.33,0.262c1.863,0,2.91-1.339,2.91-3.872
			C355.678,350.46,354.631,349.122,352.768,349.122z"/>
		<path fill="#4D4D4D" d="M374.805,354.362h-9.111c0.35,1.775,1.893,2.532,3.959,2.532c1.455,0,2.824-0.319,4.076-0.728v3.29
			c-1.223,0.437-2.736,0.728-4.076,0.728c-5.008,0-7.977-2.707-7.977-7.162c0-4.309,2.59-7.191,6.695-7.191
			c4.193,0,6.521,2.883,6.521,7.191C374.893,353.488,374.864,353.925,374.805,354.362z M368.372,348.889
			c-1.34,0-2.387,0.902-2.619,2.388h5.297C370.788,349.646,369.741,348.889,368.372,348.889z"/>
		<path fill="#4D4D4D" d="M384.006,349.122c-0.846,0-1.66,0.115-2.33,0.291v10.393h-3.873v-13.101
			c1.893-0.495,4.367-0.874,6.203-0.874c1.164,0,2.707,0.291,3.697,0.611v3.319C386.713,349.413,385.17,349.122,384.006,349.122z"/>
	</g>
	<g>
		<path fill="#4D4D4D" d="M8.781,311.653c-1.165,0-2.125-0.961-2.125-2.126c0-1.193,0.96-2.154,2.125-2.154
			c1.194,0,2.154,0.961,2.154,2.154C10.936,310.692,9.975,311.653,8.781,311.653z M10.732,327.956H6.86V314.36h3.872V327.956z"/>
		<path fill="#4D4D4D" d="M17.341,317.272h-2.708c0.874-1.485,1.543-3,1.863-4.543c-0.961-0.291-1.688-1.164-1.688-2.241
			c0-1.281,1.048-2.329,2.329-2.329c1.31,0,2.329,1.048,2.329,2.329C19.466,312.817,18.651,315.089,17.341,317.272z"/>
		<path fill="#4D4D4D" d="M40.632,327.956v-8.733c0-1.194-0.902-1.95-2.329-1.95s-2.329,0.756-2.329,1.95v8.733h-3.872v-8.733
			c0-1.194-0.902-1.95-2.329-1.95c-0.844,0-1.66,0.115-2.329,0.291v10.393h-3.872v-13.101c1.893-0.495,4.367-0.874,6.201-0.874
			c1.979,0,3.464,0.583,4.483,1.428c0.903-0.816,2.329-1.428,4.047-1.428c3.697,0,6.23,2.039,6.23,5.241v8.733H40.632z"/>
		<path fill="#4D4D4D" d="M68.813,328.335c-1.339,0-2.417-0.379-3.028-1.106c-1.106,0.641-2.504,1.106-3.959,1.106
			c-3.581,0-5.648-1.863-5.648-4.367c0-2.475,2.067-4.367,5.648-4.367h3.086v-0.378c0-1.165-0.932-1.95-2.795-1.95
			c-1.31,0-2.853,0.262-4.571,0.698v-3.29c1.572-0.379,3.144-0.699,4.571-0.699c4.018,0,6.696,1.893,6.696,5.241v4.833
			c0,0.728,0.291,0.989,0.961,0.989c0.495,0,0.96-0.146,1.368-0.291v3.202C70.531,328.16,69.6,328.335,68.813,328.335z
			 M64.912,322.513h-3.086c-1.194,0-1.747,0.553-1.747,1.455c0,0.932,0.553,1.456,1.747,1.456c1.019,0,2.154-0.292,3.086-0.845
			V322.513z"/>
		<path fill="#4D4D4D" d="M99.907,327.956h-3.61l-3.552-8.85l-3.581,8.85h-3.61l-5.473-13.596h4.222l3.057,8.646l3.465-8.646h3.814
			l3.464,8.646l3.057-8.646h4.221L99.907,327.956z"/>
		<path fill="#4D4D4D" d="M119.472,322.513h-9.113c0.349,1.775,1.892,2.532,3.959,2.532c1.456,0,2.824-0.319,4.076-0.728v3.29
			c-1.223,0.437-2.736,0.728-4.076,0.728c-5.008,0-7.977-2.707-7.977-7.162c0-4.309,2.591-7.191,6.696-7.191
			c4.192,0,6.521,2.883,6.521,7.191C119.559,321.639,119.53,322.075,119.472,322.513z M113.037,317.039
			c-1.339,0-2.387,0.902-2.62,2.388h5.299C115.454,317.796,114.406,317.039,113.037,317.039z"/>
		<path fill="#4D4D4D" d="M128.671,328.335c-1.834,0-4.309-0.379-6.201-0.873v-20.846h3.872v7.744
			c0.699-0.203,1.572-0.379,2.329-0.379c4.396,0,6.987,2.941,6.987,7.191C135.659,325.395,133.067,328.335,128.671,328.335z
			 M128.671,317.272c-0.844,0-1.66,0.115-2.329,0.291v7.22c0.669,0.146,1.485,0.262,2.329,0.262c1.863,0,2.912-1.339,2.912-3.872
			C131.583,318.61,130.535,317.272,128.671,317.272z"/>
		<path fill="#4D4D4D" d="M171.28,328.335c-1.193,0-2.125-0.262-2.795-0.844c-1.048,0.523-2.154,0.844-3.435,0.844
			c-3.698,0-6.202-2.038-6.202-5.24v-8.734h3.873v8.734c0,1.193,0.902,1.95,2.329,1.95c0.932,0,1.572-0.146,2.329-0.466V314.36
			h3.901v9.695c0,0.728,0.292,0.989,0.961,0.989c0.495,0,0.961-0.146,1.368-0.291v3.202
			C172.998,328.16,172.066,328.335,171.28,328.335z"/>
		<path fill="#4D4D4D" d="M183.799,327.956l-2.824-4.047l-2.795,4.047h-4.571l5.095-6.783l-5.095-6.813h4.571l2.795,4.047
			l2.824-4.047h4.571l-5.095,6.813l5.095,6.783H183.799z"/>
		<path fill="#4D4D4D" d="M211.486,328.335c-1.193,0-2.125-0.262-2.795-0.844c-1.049,0.523-2.154,0.844-3.436,0.844
			c-4.396,0-6.987-2.94-6.987-7.162c0-4.25,2.591-7.191,6.987-7.191c0.816,0,1.748,0.146,2.33,0.263v-7.628h3.9v17.439
			c0,0.728,0.291,0.989,0.961,0.989c0.494,0,0.961-0.146,1.369-0.291v3.202C213.205,328.16,212.273,328.335,211.486,328.335z
			 M207.585,317.563c-0.641-0.176-1.486-0.291-2.33-0.291c-1.833,0-2.911,1.338-2.911,3.9c0,2.533,1.077,3.872,2.911,3.872
			c0.932,0,1.572-0.146,2.33-0.466V317.563z"/>
		<path fill="#4D4D4D" d="M227.907,322.513h-9.112c0.35,1.775,1.893,2.532,3.959,2.532c1.455,0,2.824-0.319,4.076-0.728v3.29
			c-1.223,0.437-2.736,0.728-4.076,0.728c-5.008,0-7.978-2.707-7.978-7.162c0-4.309,2.59-7.191,6.696-7.191
			c4.194,0,6.522,2.883,6.522,7.191C227.995,321.639,227.965,322.075,227.907,322.513z M221.473,317.039
			c-1.34,0-2.387,0.902-2.619,2.388h5.297C223.889,317.796,222.842,317.039,221.473,317.039z"/>
		<path fill="#4D4D4D" d="M234.866,328.335c-1.719,0-3.174-0.291-4.746-0.728v-3.29c1.689,0.466,3.377,0.728,4.746,0.728
			c1.688,0,2.184-0.524,2.184-1.077c0-0.523-0.438-0.961-1.602-0.961c-3.494,0-5.531-1.396-5.531-4.367
			c0-2.328,2.096-4.658,6.113-4.658c1.746,0,3.203,0.291,4.775,0.729v3.318c-1.689-0.494-3.379-0.756-4.775-0.756
			c-1.689,0-2.184,0.523-2.184,1.076c0,0.554,0.465,0.961,1.602,0.961c3.521,0,5.531,1.397,5.531,4.367
			C240.979,326.006,238.913,328.335,234.866,328.335z"/>
		<path fill="#4D4D4D" d="M245.84,311.653c-1.164,0-2.125-0.961-2.125-2.126c0-1.193,0.961-2.154,2.125-2.154
			c1.193,0,2.154,0.961,2.154,2.154C247.995,310.692,247.034,311.653,245.84,311.653z M247.792,327.956h-3.873V314.36h3.873V327.956
			z"/>
		<path fill="#4D4D4D" d="M263.135,319.223c0,2.416-1.486,4.192-3.727,4.891c-0.641,0.204-0.932,0.495-0.932,0.932
			s0.291,0.728,0.932,0.932c2.299,0.728,3.727,2.476,3.727,4.892c0,3.202-2.504,5.24-6.201,5.24c-3.699,0-6.23-2.038-6.23-5.24
			c0-2.592,1.658-4.426,4.279-5.037c-0.176-0.116-0.379-0.437-0.379-0.786c0-0.349,0.203-0.669,0.379-0.786
			c-2.621-0.611-4.279-2.445-4.279-5.036c0-3.202,2.531-5.241,6.23-5.241c1.805,0,4.309,0.379,6.201,0.874V319.223z
			 M256.934,317.272c-1.428,0-2.33,0.756-2.33,1.95c0,1.193,0.902,1.95,2.33,1.95c1.426,0,2.328-0.757,2.328-1.95v-1.659
			C258.592,317.388,257.749,317.272,256.934,317.272z M256.934,328.917c-1.428,0-2.33,0.758-2.33,1.951s0.902,1.95,2.33,1.95
			c1.426,0,2.328-0.757,2.328-1.95S258.36,328.917,256.934,328.917z"/>
		<path fill="#4D4D4D" d="M274.577,327.956v-8.733c0-1.194-0.902-1.95-2.33-1.95c-0.844,0-1.658,0.115-2.328,0.291v10.393h-3.873
			v-13.101c1.893-0.495,4.367-0.874,6.201-0.874c3.699,0,6.203,2.039,6.203,5.241v8.733H274.577z"/>
		<path fill="#4D4D4D" d="M294.286,322.513h-9.111c0.35,1.775,1.893,2.532,3.959,2.532c1.455,0,2.824-0.319,4.076-0.728v3.29
			c-1.223,0.437-2.736,0.728-4.076,0.728c-5.008,0-7.977-2.707-7.977-7.162c0-4.309,2.59-7.191,6.695-7.191
			c4.193,0,6.521,2.883,6.521,7.191C294.374,321.639,294.344,322.075,294.286,322.513z M287.852,317.039
			c-1.34,0-2.387,0.902-2.619,2.388h5.297C290.268,317.796,289.221,317.039,287.852,317.039z"/>
		<path fill="#4D4D4D" d="M303.487,317.272c-0.844,0-1.66,0.115-2.33,0.291v10.393h-3.871v-13.101
			c1.893-0.495,4.367-0.874,6.201-0.874c1.164,0,2.707,0.291,3.697,0.611v3.319C306.194,317.563,304.651,317.272,303.487,317.272z"
			/>
	</g>
	<g>
		<path fill="#333333" d="M142.888,332.097h-3.367l13.386-26.719h3.366L142.888,332.097z"/>
	</g>
	<g>
		<path fill="#E2685A" d="M70.826,17.649c-0.405,0.545-1.127,1.05-1.785,1.179c-2.341,0.457-4.72,0.726-7.075,1.121
			c-0.364,0.063-0.882,0.354-0.987,0.66c-1.41,4.079-2.774,8.176-4.095,12.284c-0.09,0.277,0.158,0.771,0.397,1.026
			c1.822,1.928,3.692,3.813,5.528,5.73c1.197,1.251,0.897,2.533-0.764,2.751c-5.725,0.752-11.46,1.148-17.133-0.431
			c-3.122-0.87-5.131-2.966-6.374-5.868c-0.507-1.181-0.874-2.428-1.424-3.586c-0.191-0.402-0.703-0.81-1.139-0.915
			c-5.041-1.207-9.981-2.697-14.66-4.967C13.35,22.771,7.05,17.089,2.594,9.415c-0.867-1.494-0.661-2.07,0.978-2.76
			c5.639-2.378,11.533-3.422,17.966-3.207c6.598,0.367,13.179,2.158,19.503,4.962c0.126,0.055,0.278,0.062,0.396,0.131
			c1.387,0.815,2.601,0.986,4.067-0.144c1.394-1.072,3.077-1.849,4.735-2.482c3.544-1.354,6.787-0.02,9.621,1.889
			c3.563,2.396,6.847,5.212,10.209,7.9C70.633,16.153,71.461,16.795,70.826,17.649z"/>
		<path fill="#E2685A" d="M70.069,15.704c-3.363-2.688-6.646-5.504-10.209-7.9c-2.834-1.908-6.077-3.243-9.621-1.889
			c-1.659,0.634-3.342,1.41-4.735,2.482c-1.466,1.13-2.68,0.959-4.067,0.144c-0.117-0.069-0.269-0.076-0.396-0.131
			c-6.324-2.804-12.905-4.595-19.503-4.962C15.105,3.233,9.211,4.277,3.572,6.655c-1.639,0.689-1.845,1.266-0.978,2.76
			c4.456,7.674,10.756,13.356,18.721,17.22c4.678,2.27,9.619,3.76,14.66,4.967c0.437,0.105,0.948,0.513,1.139,0.915
			c0.551,1.158,0.917,2.405,1.424,3.586c1.243,2.902,3.252,4.998,6.374,5.868c5.673,1.579,11.408,1.183,17.133,0.431
			c1.662-0.218,1.961-1.5,0.764-2.751c-1.836-1.917-3.706-3.803-5.528-5.73c-0.239-0.255-0.487-0.749-0.397-1.026
			c1.321-4.108,2.685-8.205,4.095-12.284c0.105-0.306,0.623-0.598,0.987-0.66c2.355-0.396,4.734-0.664,7.075-1.121
			c0.657-0.129,1.38-0.634,1.785-1.179C71.461,16.795,70.633,16.153,70.069,15.704z M59.012,39.9
			c-1.883,0.087-3.377,0.254-4.862,0.202c-2.107-0.072-4.212-0.257-6.311-0.479c-4.236-0.448-6.128-2.379-7.443-7.014
			c4.334,0.784,8.641,1.529,12.93,2.369c0.664,0.13,1.334,0.582,1.846,1.053C56.38,37.145,57.495,38.358,59.012,39.9z
			 M54.376,31.125c-0.261,0.808-0.558,1.003-1.355,0.831c-7.349-1.592-14.737-3.02-22.046-4.773
			c-5.367-1.288-10.319-3.736-14.81-6.931c-4.217-3.001-7.732-6.746-10.449-11.336c3.636-1.41,7.311-2.216,11.118-2.495
			c8.353-0.617,16.14,1.574,23.654,4.889c5.924,2.612,11.739,5.467,17.778,8.294C56.916,23.572,55.599,27.333,54.376,31.125z
			 M59.885,17.137c-0.214,0.025-0.467-0.069-0.668-0.173c-3.062-1.574-6.115-3.167-9.18-4.736c-0.91-0.469-1.849-0.873-2.855-1.347
			c3.949-2.865,6.094-3.212,9.933-1.273c3.354,1.691,6.235,3.975,9.264,6.699C64.012,16.612,61.95,16.887,59.885,17.137z"/>
		<path fill="#E2685A" d="M53.326,34.979c-4.289-0.84-8.596-1.585-12.93-2.369c1.315,4.635,3.207,6.565,7.443,7.014
			c2.098,0.223,4.204,0.407,6.311,0.479c1.485,0.052,2.979-0.115,4.862-0.202c-1.517-1.542-2.632-2.756-3.841-3.869
			C54.66,35.561,53.989,35.108,53.326,34.979z"/>
		<path fill="#E2685A" d="M47.182,10.881c1.007,0.474,1.945,0.878,2.855,1.347c3.065,1.569,6.118,3.162,9.18,4.736
			c0.201,0.104,0.454,0.198,0.668,0.173c2.065-0.25,4.127-0.524,6.493-0.83c-3.028-2.725-5.909-5.008-9.264-6.699
			C53.275,7.669,51.131,8.016,47.182,10.881z"/>
		<g>
			<path fill="#E2685A" d="M16.834,6.421C13.027,6.7,9.352,7.506,5.716,8.916c2.716,4.59,6.232,8.335,10.449,11.336
				c4.491,3.194,9.442,5.643,14.81,6.931c7.31,1.754,14.697,3.182,22.046,4.773c0.797,0.172,1.094-0.023,1.355-0.831
				c1.223-3.792,2.54-7.553,3.89-11.521c-6.039-2.827-11.854-5.682-17.778-8.294C32.974,7.995,25.187,5.804,16.834,6.421z
				 M16.223,16.861c-2.286-0.113-4.073-2.143-3.927-4.46c0.14-2.227,2.226-3.998,4.543-3.854c2.249,0.141,3.967,2.153,3.848,4.509
				C20.575,15.296,18.599,16.98,16.223,16.861z M25.828,20.042c-2.701-0.255-4.191-1.761-4.152-4.389
				c0.033-2.112,2.068-4.171,4.146-4.02c2.536,0.183,4.38,2.141,4.212,4.219C30.001,18.236,28.097,20.257,25.828,20.042z
				 M35.016,23.247c-2.182-0.165-4.078-2.212-3.901-4.398c0.195-2.413,1.887-4.051,4.566-3.954c2.297,0.083,4,2.101,3.875,4.493
				C39.442,21.578,37.277,23.419,35.016,23.247z"/>
			<path fill="#E2685A" d="M35.682,14.895c-2.679-0.097-4.371,1.541-4.566,3.954c-0.177,2.187,1.719,4.233,3.901,4.398
				c2.261,0.172,4.426-1.669,4.541-3.859C39.682,16.995,37.979,14.978,35.682,14.895z M35.226,21.794
				c-1.416-0.06-2.67-1.38-2.672-2.812c-0.002-1.37,1.385-2.651,2.833-2.619c1.537,0.038,2.724,1.23,2.71,2.729
				C38.083,20.629,36.772,21.862,35.226,21.794z"/>
			<path fill="#E2685A" d="M25.822,11.634c-2.079-0.151-4.113,1.907-4.146,4.02c-0.039,2.628,1.451,4.134,4.152,4.389
				c2.269,0.215,4.174-1.806,4.207-4.189C30.202,13.774,28.358,11.816,25.822,11.634z M25.711,18.634
				c-1.348-0.041-2.724-1.559-2.611-2.883c0.125-1.455,1.485-2.71,2.863-2.635c1.569,0.083,2.775,1.479,2.666,3.087
				C28.544,17.455,27.081,18.673,25.711,18.634z"/>
			<path fill="#E2685A" d="M16.84,8.548c-2.317-0.145-4.403,1.627-4.543,3.854c-0.146,2.317,1.641,4.347,3.927,4.46
				c2.376,0.119,4.352-1.565,4.464-3.805C20.807,10.701,19.088,8.688,16.84,8.548z M16.448,15.392
				c-1.681-0.121-2.821-1.329-2.715-2.872c0.097-1.399,1.519-2.594,2.982-2.507c1.425,0.086,2.653,1.51,2.532,2.937
				C19.119,14.461,17.929,15.501,16.448,15.392z"/>
			<path fill="#E2685A" d="M35.386,16.363c-1.447-0.032-2.835,1.249-2.833,2.619c0.002,1.432,1.256,2.752,2.672,2.812
				c1.546,0.068,2.857-1.165,2.871-2.701C38.11,17.594,36.922,16.401,35.386,16.363z"/>
			<path fill="#E2685A" d="M25.963,13.116c-1.378-0.075-2.739,1.18-2.863,2.635c-0.113,1.324,1.263,2.842,2.611,2.883
				c1.37,0.039,2.833-1.179,2.918-2.431C28.739,14.596,27.533,13.199,25.963,13.116z"/>
			<path fill="#E2685A" d="M16.715,10.013c-1.463-0.087-2.885,1.107-2.982,2.507c-0.106,1.543,1.034,2.751,2.715,2.872
				c1.481,0.109,2.671-0.931,2.799-2.442C19.368,11.522,18.14,10.099,16.715,10.013z"/>
		</g>
	</g>
	<g>
		<circle fill="#979797" cx="112.556" cy="48.372" r="12.964"/>
		<g>
			<circle fill="#979797" cx="114.946" cy="35.888" r="10.574"/>
			<circle fill="#979797" cx="104.432" cy="39.337" r="10"/>
		</g>
	</g>
	<circle fill="#979797" cx="123.253" cy="45.095" r="9.207"/>
	<g>
		<circle fill="#979797" cx="181.692" cy="63.444" r="9.153"/>
		<circle fill="#979797" cx="176.129" cy="54.881" r="9.564"/>
	</g>
	<circle fill="#979797" cx="169.704" cy="61.739" r="8.858"/>
	<circle fill="#979797" cx="228.744" cy="74.055" r="5.718"/>
	<circle fill="#979797" cx="223.649" cy="77.149" r="4.813"/>
	<circle fill="#979797" cx="228.522" cy="80.522" r="4.551"/>
	<path fill="#7E7E7E" d="M423.721,93.063c-3.369,9.464,6.447,25.225-13.461,32.177c-16.307,5.694-21.42,7.639-30.379,12.076
		c-11.459,8.38-23.311,17.708-30.234,28.135c-3.854,5.802-7.846,13.835-4.988,19.158c0.404,0.754,0.936,1.42,1.551,2.011
		c3.867-0.051,7.777-0.36,11.713-0.957c2.439-0.371,4.836-0.847,7.193-1.414c-0.889-3.487-0.033-8.016,2.566-13.183
		c3.32-6.599,9.141-13.659,16.393-19.881c9.117-7.824,19.289-13.214,27.211-14.415c5.211-0.791,8.395,0.357,10.316,1.828
		c5.791-12.005,8.801-25.473,8.338-39.454C427.883,93.146,425.405,88.328,423.721,93.063z"/>
	<path fill="#4D4D4D" d="M311.918,172.157c0.83-18.439,24.727-40.741,46.527-50.001c6.754-2.868,8.953-5.777,8.73-6.509
		c-0.016-0.054-3.063-5.172-34.586,0.772c-24.381,4.596-42.273,14.515-51.744,28.687c-1.611,2.409-2.877,4.811-3.865,7.087
		c2.109,2.854,4.387,5.563,6.822,8.115c2.705-5.797,9.461-18.992,16.158-21.925c8.643-3.784,7.154,5.659,14.352,5.691
		c6.623,0.029-14.768,14.773-9.074,32.544c2.604,1.394,5.287,2.649,8.035,3.771C312.247,177.863,311.786,175.108,311.918,172.157z
		 M315.342,128.631c0,0,15.035-6.104,21.217-3.896c6.182,2.211-3.779,2.599-9.258,9.05
		C321.825,140.236,304.688,132.496,315.342,128.631z"/>
	<path fill="#4D4D4D" d="M419.6,142.491c-1.756-1.956-5.137-1.916-7.68-1.529c-7.168,1.087-16.547,6.111-25.086,13.44
		c-6.836,5.866-12.293,12.46-15.367,18.568c-2.105,4.189-2.877,7.753-2.264,10.188C391.239,176.684,409.079,161.715,419.6,142.491z"
		/>
	<path fill="#4D4D4D" d="M275.153,74.177c9.377-14.276,21.482-26.256,35.98-35.605c14.424-9.302,31.248-15.994,50.174-19.98
		c-9.256-1.79-18.971-2.063-28.826-0.567c-43.066,6.536-73.613,44.403-72.004,86.924C263.178,96.449,267.692,85.537,275.153,74.177z
		"/>
	<path fill="#7E7E7E" d="M426.536,77.906c-0.703-2.407-1.51-4.764-2.41-7.067c-22.305-3.499-45.41-1.4-65.943,2.452
		c-50.18,10.141-77.301,34.03-79.076,25.744c-1.076-5.023,7.99-14.688,16.328-22.339c1.104-1.058,2.344-2.212,3.74-3.482
		c22.354-20.354,51.52-32.396,72.051-38.915c6.467-2.053,12.508-3.701,17.83-5.01c-5.432-3.287-11.24-5.974-17.322-7.983
		c-22.264,3.553-41.791,10.602-58.092,21.114c-13.953,8.997-25.596,20.546-34.613,34.277
		c-11.303,17.207-15.594,33.591-17.082,41.126c0.926,4.836,2.248,9.502,3.93,13.969c2.973-7.315,8.428-13.922,16.309-19.725
		c9.561-7.036,22.367-12.697,38.068-16.826c25.637-6.743,55.428-8.184,73.971-4.776c6.494,0.424,14.01,0.439,14.467-1.699
		C410.354,80.995,374.989,71.898,426.536,77.906z M382.417,83.944c0,0-12.711-0.672-8.143-4.831s6.314-7.89,10.91-4.254
		C389.778,78.494,392.5,84.436,382.417,83.944z"/>
	<path fill="#979797" d="M407.5,100.339c-3.426-4.83-18.848-6.965-31.014-7.325c-17.76-0.526-37.865,1.779-55.158,6.328
		c-17.818,4.687-47.357,15.756-52.939,38.42c1.693,3.625,3.627,7.099,5.783,10.401c0.836-1.667,1.816-3.396,2.982-5.16
		c4.498-6.818,10.748-12.745,18.574-17.617c5.178-3.223,11.066-5.981,17.6-8.267c-0.018,0.003,44.646-13.207,56.922-13.134
		c16.479,0.1,27.123-0.938,23.492,5.967c-3.633,6.906-12.674,12.033-21.084,15.62c-8.408,3.587-10.18-0.478-13.08,5.162
		c-2.898,5.64-2.256,9.875-9.143,12.075c-6.885,2.199-19.416,3.733-28.139,13.61c-3.799,5.667-5.928,11.123-6.145,15.928
		c-0.178,3.944,0.967,7.39,3.393,10.314c6.824,2.171,13.982,3.498,21.332,3.866c-3.025-5.751-1.266-13.631,5.236-23.422
		c8.506-12.808,23.625-23.717,36.963-33.343C401.719,116.311,412.665,107.616,407.5,100.339z"/>
	<path fill="#BCBCBC" d="M415.78,54.848c-21.035-1.705-26.52,4.161-58.152,5.765c-29.957,1.521,22.121-13.824,45.74-20.45
		c-2.955-2.783-6.104-5.35-9.42-7.681c-6.113,1.408-13.482,3.328-21.521,5.885c-20.104,6.39-48.633,18.165-70.398,37.982
		c-1.457,1.326-2.691,2.484-3.744,3.499c-0.223,0.362-0.422,0.698-0.584,0.992c-1.613,2.918,1.543,3.032,3.424,2.871
		c1.777-0.488,3.697-1.04,5.668-1.616c8.68-2.803,16.369-4.972,23.152-6.643c25.254-6.777,59.338-13.723,92.23-9.187
		C420.329,62.269,418.186,58.455,415.78,54.848z M328.807,66.85c-4.406-1.694,9.777-5.849,9.777-5.849
		C351.958,62.726,333.211,68.543,328.807,66.85z"/>
</g>
</svg>
